<svg width="170" height="45" viewBox="0 0 170 45" fill="none" xmlns="http://www.w3.org/2000/svg">
<rect x="0.1" y="0.1" width="169.8" height="44.8" rx="4.9" stroke="#C6C6C6" stroke-opacity="0.7" stroke-width="0.2"/>
<g clip-path="url(#clip0_6039_1363)">
<path d="M33.1553 24.3252C33.2053 24.7726 32.8605 25.1595 32.4026 25.1595H30.184L29.0234 23.5619C28.6865 23.104 28.1575 22.8303 27.589 22.8303C27.0284 22.8303 26.4994 23.104 26.1652 23.5619L25.0045 25.1595H22.899C22.4516 25.1595 22.0963 24.7726 22.1463 24.3252L22.4015 21.7802C22.5858 20.2852 23.6017 19.072 24.9466 18.5851L24.9861 18.5641C25.7282 19.1246 26.6547 19.4483 27.6522 19.4483C28.6496 19.4483 29.576 19.1221 30.3182 18.5746L30.3576 18.5851C31.7105 19.0747 32.729 20.2852 32.9106 21.7907L33.1553 24.3252Z" fill="white"/>
<path d="M24.3623 14.9531C24.3623 16.7691 25.8335 18.243 27.6496 18.243C29.4655 18.243 30.9394 16.7718 30.9394 14.9531C30.9394 13.1371 29.4655 11.6659 27.6496 11.6659C25.8335 11.6632 24.3623 13.1371 24.3623 14.9531Z" fill="white"/>
<path d="M40.7931 28.4256L40.7562 28.4151C40.0114 28.9652 39.0902 29.2889 38.0902 29.2889C37.0901 29.2889 36.1689 28.9626 35.4241 28.4098L35.3819 28.4231C34.0344 28.9125 33.0159 30.1258 32.837 31.6233L32.5764 34.1684C32.5344 34.6158 32.8844 35 33.3291 35H42.8459C43.296 35 43.6459 34.6131 43.5986 34.1684L43.3486 31.6339C43.1723 30.1284 42.1511 28.9152 40.7931 28.4256Z" fill="white"/>
<path d="M34.803 24.7937C34.803 26.6097 36.2741 28.0836 38.0901 28.0836C39.9061 28.0836 41.3799 26.6123 41.3799 24.7937C41.3799 22.9777 39.9061 21.5065 38.0901 21.5065C36.2741 21.5065 34.803 22.9777 34.803 24.7937Z" fill="white"/>
<path d="M30.2025 28.7362H29.1288C29.2051 30.4232 29.8156 31.9708 30.8078 33.1998C30.9395 33.363 30.8027 33.6051 30.5973 33.5789C28.1339 33.2762 26.2127 31.2444 26.0626 28.7362H24.9835C24.5414 28.7362 24.2861 28.2336 24.5441 27.8756L27.1549 24.2779C27.3707 23.9805 27.8155 23.9805 28.0313 24.2779L30.6421 27.8756C30.9 28.2336 30.6447 28.7362 30.2025 28.7362Z" fill="white"/>
<path d="M38.0901 10C35.3556 10 33.137 12.2161 33.137 14.9531C33.137 17.6902 35.3529 19.9063 38.0901 19.9063C40.8272 19.9063 43.0432 17.6902 43.0432 14.9531C43.0432 12.2161 40.8246 10 38.0901 10ZM40.435 14.2478L37.8374 16.8455C37.7163 16.9665 37.5584 17.027 37.4031 17.027C37.2453 17.027 37.0873 16.9665 36.9689 16.8481L35.6766 15.5558C35.4372 15.3164 35.4372 14.9242 35.6766 14.6847C35.9162 14.4452 36.3083 14.4452 36.5478 14.6847L37.4031 15.54L39.5665 13.3766C39.806 13.1372 40.1982 13.1372 40.4377 13.3766C40.6746 13.6162 40.6746 14.0084 40.435 14.2478Z" fill="white"/>
</g>
<path d="M60.0486 22.5C60.4752 22.5 60.8486 22.4493 61.1686 22.348C61.4886 22.2413 61.7552 22.0947 61.9686 21.908C62.1819 21.7213 62.3419 21.5 62.4486 21.244C62.5552 20.9827 62.6086 20.6947 62.6086 20.38C62.6086 19.7507 62.4006 19.2707 61.9846 18.94C61.5686 18.6093 60.9392 18.444 60.0966 18.444H58.5766V22.5H60.0486ZM65.4726 28.5H63.8006C63.4699 28.5 63.2299 28.372 63.0806 28.116L60.3926 24.236C60.3019 24.1027 60.2032 24.0067 60.0966 23.948C59.9899 23.8893 59.8299 23.86 59.6166 23.86H58.5766V28.5H56.7046V16.98H60.0966C60.8539 16.98 61.5046 17.0573 62.0486 17.212C62.5979 17.3667 63.0486 17.588 63.4006 17.876C63.7526 18.1587 64.0112 18.5 64.1766 18.9C64.3472 19.3 64.4326 19.7453 64.4326 20.236C64.4326 20.636 64.3712 21.0093 64.2486 21.356C64.1312 21.7027 63.9579 22.0173 63.7286 22.3C63.5046 22.5827 63.2272 22.828 62.8966 23.036C62.5659 23.244 62.1899 23.4067 61.7686 23.524C61.9979 23.6627 62.1952 23.8573 62.3606 24.108L65.4726 28.5ZM71.8416 23.5C71.8416 23.212 71.7989 22.9453 71.7136 22.7C71.6336 22.4493 71.5136 22.2333 71.3536 22.052C71.1936 21.8653 70.9936 21.7213 70.7536 21.62C70.5189 21.5133 70.2469 21.46 69.9376 21.46C69.3136 21.46 68.8229 21.6387 68.4656 21.996C68.1082 22.3533 67.8816 22.8547 67.7856 23.5H71.8416ZM67.7376 24.556C67.7589 25.02 67.8309 25.4227 67.9536 25.764C68.0762 26.1 68.2389 26.38 68.4416 26.604C68.6496 26.828 68.8949 26.996 69.1776 27.108C69.4656 27.2147 69.7856 27.268 70.1376 27.268C70.4736 27.268 70.7642 27.2307 71.0096 27.156C71.2549 27.076 71.4682 26.9907 71.6496 26.9C71.8309 26.804 71.9856 26.7187 72.1136 26.644C72.2416 26.564 72.3589 26.524 72.4656 26.524C72.6042 26.524 72.7109 26.5773 72.7856 26.684L73.2736 27.316C73.0709 27.556 72.8416 27.7587 72.5856 27.924C72.3296 28.0893 72.0576 28.2253 71.7696 28.332C71.4816 28.4333 71.1856 28.5053 70.8816 28.548C70.5776 28.596 70.2816 28.62 69.9936 28.62C69.4282 28.62 68.9029 28.5267 68.4176 28.34C67.9376 28.148 67.5189 27.868 67.1616 27.5C66.8096 27.132 66.5322 26.676 66.3296 26.132C66.1322 25.588 66.0336 24.9613 66.0336 24.252C66.0336 23.6867 66.1216 23.1587 66.2976 22.668C66.4789 22.1773 66.7349 21.7507 67.0656 21.388C67.4016 21.0253 67.8069 20.74 68.2816 20.532C68.7616 20.3187 69.3029 20.212 69.9056 20.212C70.4069 20.212 70.8709 20.2947 71.2976 20.46C71.7242 20.62 72.0922 20.8573 72.4016 21.172C72.7109 21.4867 72.9509 21.8733 73.1216 22.332C73.2976 22.7853 73.3856 23.3027 73.3856 23.884C73.3856 24.1507 73.3562 24.3293 73.2976 24.42C73.2389 24.5107 73.1322 24.556 72.9776 24.556H67.7376ZM75.9122 28.5V21.708L75.1122 21.596C74.9789 21.5693 74.8695 21.5213 74.7842 21.452C74.7042 21.3827 74.6642 21.284 74.6642 21.156V20.452H75.9122V19.764C75.9122 19.3 75.9789 18.884 76.1122 18.516C76.2509 18.148 76.4455 17.836 76.6962 17.58C76.9522 17.324 77.2615 17.1293 77.6242 16.996C77.9869 16.8573 78.3949 16.788 78.8482 16.788C79.0349 16.788 79.2109 16.8013 79.3762 16.828C79.5469 16.8547 79.7122 16.8947 79.8722 16.948L79.8402 17.812C79.8295 17.956 79.7575 18.0413 79.6242 18.068C79.4962 18.0947 79.3335 18.108 79.1362 18.108C78.8962 18.108 78.6802 18.1373 78.4882 18.196C78.2962 18.2493 78.1309 18.3427 77.9922 18.476C77.8589 18.6093 77.7549 18.7853 77.6802 19.004C77.6109 19.2227 77.5762 19.4947 77.5762 19.82V20.452H79.8082V21.692H77.6322V28.5H75.9122ZM86.6297 23.5C86.6297 23.212 86.587 22.9453 86.5017 22.7C86.4217 22.4493 86.3017 22.2333 86.1417 22.052C85.9817 21.8653 85.7817 21.7213 85.5417 21.62C85.307 21.5133 85.035 21.46 84.7257 21.46C84.1017 21.46 83.611 21.6387 83.2537 21.996C82.8964 22.3533 82.6697 22.8547 82.5737 23.5H86.6297ZM82.5257 24.556C82.547 25.02 82.619 25.4227 82.7417 25.764C82.8644 26.1 83.027 26.38 83.2297 26.604C83.4377 26.828 83.683 26.996 83.9657 27.108C84.2537 27.2147 84.5737 27.268 84.9257 27.268C85.2617 27.268 85.5524 27.2307 85.7977 27.156C86.043 27.076 86.2564 26.9907 86.4377 26.9C86.619 26.804 86.7737 26.7187 86.9017 26.644C87.0297 26.564 87.147 26.524 87.2537 26.524C87.3924 26.524 87.499 26.5773 87.5737 26.684L88.0617 27.316C87.859 27.556 87.6297 27.7587 87.3737 27.924C87.1177 28.0893 86.8457 28.2253 86.5577 28.332C86.2697 28.4333 85.9737 28.5053 85.6697 28.548C85.3657 28.596 85.0697 28.62 84.7817 28.62C84.2164 28.62 83.691 28.5267 83.2057 28.34C82.7257 28.148 82.307 27.868 81.9497 27.5C81.5977 27.132 81.3204 26.676 81.1177 26.132C80.9204 25.588 80.8217 24.9613 80.8217 24.252C80.8217 23.6867 80.9097 23.1587 81.0857 22.668C81.267 22.1773 81.523 21.7507 81.8537 21.388C82.1897 21.0253 82.595 20.74 83.0697 20.532C83.5497 20.3187 84.091 20.212 84.6937 20.212C85.195 20.212 85.659 20.2947 86.0857 20.46C86.5124 20.62 86.8804 20.8573 87.1897 21.172C87.499 21.4867 87.739 21.8733 87.9097 22.332C88.0857 22.7853 88.1737 23.3027 88.1737 23.884C88.1737 24.1507 88.1444 24.3293 88.0857 24.42C88.027 24.5107 87.9204 24.556 87.7657 24.556H82.5257ZM91.8817 21.852C92.1377 21.3347 92.447 20.9293 92.8097 20.636C93.1724 20.3373 93.607 20.188 94.1137 20.188C94.2897 20.188 94.455 20.2093 94.6097 20.252C94.7644 20.2893 94.903 20.348 95.0257 20.428L94.9057 21.724C94.8844 21.8147 94.8497 21.8787 94.8017 21.916C94.759 21.948 94.7004 21.964 94.6257 21.964C94.5457 21.964 94.431 21.9507 94.2817 21.924C94.1324 21.892 93.975 21.876 93.8097 21.876C93.5697 21.876 93.3564 21.9107 93.1697 21.98C92.9884 22.0493 92.823 22.1507 92.6737 22.284C92.5297 22.4173 92.4017 22.58 92.2897 22.772C92.1777 22.964 92.0737 23.1827 91.9777 23.428V28.5H90.2577V20.34H91.2577C91.439 20.34 91.5644 20.3747 91.6337 20.444C91.703 20.508 91.751 20.6227 91.7777 20.788L91.8817 21.852ZM103.549 22.98C103.058 23.268 102.695 23.604 102.461 23.988C102.226 24.372 102.109 24.788 102.109 25.236C102.109 25.5507 102.165 25.8333 102.277 26.084C102.394 26.3293 102.546 26.5373 102.733 26.708C102.925 26.8787 103.143 27.0093 103.389 27.1C103.639 27.1907 103.898 27.236 104.165 27.236C104.693 27.236 105.173 27.148 105.605 26.972C106.037 26.7907 106.421 26.548 106.757 26.244L103.549 22.98ZM111.117 28.5H109.445C109.354 28.5 109.271 28.4947 109.197 28.484C109.127 28.4733 109.061 28.4573 108.997 28.436C108.938 28.4093 108.879 28.3747 108.821 28.332C108.767 28.2893 108.709 28.2333 108.645 28.164L107.685 27.188C107.178 27.636 106.602 27.988 105.957 28.244C105.317 28.5 104.621 28.628 103.869 28.628C103.431 28.628 103.002 28.5533 102.581 28.404C102.165 28.2547 101.791 28.0413 101.461 27.764C101.13 27.4813 100.863 27.14 100.661 26.74C100.458 26.3347 100.357 25.8787 100.357 25.372C100.357 25.004 100.415 24.6573 100.533 24.332C100.655 24.0067 100.823 23.7053 101.037 23.428C101.255 23.1453 101.511 22.892 101.805 22.668C102.098 22.444 102.421 22.252 102.773 22.092C102.469 21.6867 102.247 21.292 102.109 20.908C101.97 20.524 101.901 20.1347 101.901 19.74C101.901 19.3453 101.973 18.972 102.117 18.62C102.261 18.268 102.469 17.9613 102.741 17.7C103.018 17.4387 103.351 17.2333 103.741 17.084C104.135 16.9293 104.581 16.852 105.077 16.852C105.525 16.852 105.927 16.9213 106.285 17.06C106.647 17.1987 106.957 17.3853 107.213 17.62C107.474 17.8547 107.677 18.124 107.821 18.428C107.97 18.732 108.058 19.0467 108.085 19.372L106.997 19.596C106.901 19.6173 106.81 19.604 106.725 19.556C106.645 19.508 106.583 19.428 106.541 19.316C106.498 19.1773 106.437 19.0413 106.357 18.908C106.277 18.7693 106.178 18.6467 106.061 18.54C105.943 18.4333 105.802 18.348 105.637 18.284C105.477 18.2147 105.29 18.18 105.077 18.18C104.831 18.18 104.61 18.22 104.413 18.3C104.221 18.38 104.055 18.492 103.917 18.636C103.783 18.7747 103.679 18.9373 103.605 19.124C103.535 19.3107 103.501 19.5107 103.501 19.724C103.501 19.8947 103.519 20.06 103.557 20.22C103.594 20.38 103.655 20.54 103.741 20.7C103.826 20.86 103.933 21.0253 104.061 21.196C104.194 21.3613 104.354 21.54 104.541 21.732L107.717 25.004C107.909 24.652 108.061 24.2867 108.173 23.908C108.285 23.524 108.359 23.1373 108.397 22.748C108.407 22.636 108.445 22.548 108.509 22.484C108.573 22.4147 108.658 22.38 108.765 22.38H109.829C109.823 23.0467 109.722 23.6893 109.525 24.308C109.333 24.9213 109.061 25.492 108.709 26.02L111.117 28.5ZM124.705 26.988L124.697 28.5H117.513V16.98H124.697V18.492H119.393V21.964H123.633V23.428H119.393V26.988H124.705ZM131.19 24.932C130.576 24.9533 130.059 25.004 129.638 25.084C129.216 25.1587 128.875 25.2573 128.614 25.38C128.352 25.4973 128.163 25.6387 128.046 25.804C127.934 25.9693 127.878 26.1507 127.878 26.348C127.878 26.54 127.907 26.7053 127.966 26.844C128.03 26.9773 128.115 27.0893 128.222 27.18C128.334 27.2653 128.462 27.3293 128.606 27.372C128.755 27.4093 128.918 27.428 129.094 27.428C129.542 27.428 129.926 27.3453 130.246 27.18C130.571 27.0093 130.886 26.764 131.19 26.444V24.932ZM126.63 21.476C127.552 20.6173 128.651 20.188 129.926 20.188C130.395 20.188 130.811 20.2653 131.174 20.42C131.542 20.5693 131.848 20.7827 132.094 21.06C132.344 21.3373 132.534 21.668 132.662 22.052C132.795 22.4307 132.862 22.852 132.862 23.316V28.5H132.094C131.928 28.5 131.803 28.476 131.718 28.428C131.632 28.3747 131.56 28.2707 131.502 28.116L131.334 27.452C131.126 27.6387 130.92 27.8067 130.718 27.956C130.515 28.1 130.304 28.2227 130.086 28.324C129.872 28.4253 129.64 28.5 129.39 28.548C129.144 28.6013 128.872 28.628 128.574 28.628C128.243 28.628 127.934 28.5827 127.646 28.492C127.363 28.4013 127.118 28.2653 126.91 28.084C126.702 27.8973 126.536 27.668 126.414 27.396C126.296 27.124 126.238 26.804 126.238 26.436C126.238 26.1213 126.32 25.8147 126.486 25.516C126.656 25.2173 126.934 24.9507 127.318 24.716C127.707 24.476 128.216 24.2787 128.846 24.124C129.48 23.9693 130.262 23.8813 131.19 23.86V23.316C131.19 22.7293 131.064 22.292 130.814 22.004C130.563 21.716 130.195 21.572 129.71 21.572C129.379 21.572 129.102 21.6147 128.878 21.7C128.654 21.78 128.459 21.868 128.294 21.964C128.128 22.06 127.982 22.1507 127.854 22.236C127.726 22.316 127.59 22.356 127.446 22.356C127.328 22.356 127.227 22.3267 127.142 22.268C127.062 22.204 126.995 22.1267 126.942 22.036L126.63 21.476ZM136.98 21.852C137.236 21.3347 137.546 20.9293 137.908 20.636C138.271 20.3373 138.706 20.188 139.212 20.188C139.388 20.188 139.554 20.2093 139.708 20.252C139.863 20.2893 140.002 20.348 140.124 20.428L140.004 21.724C139.983 21.8147 139.948 21.8787 139.9 21.916C139.858 21.948 139.799 21.964 139.724 21.964C139.644 21.964 139.53 21.9507 139.38 21.924C139.231 21.892 139.074 21.876 138.908 21.876C138.668 21.876 138.455 21.9107 138.268 21.98C138.087 22.0493 137.922 22.1507 137.772 22.284C137.628 22.4173 137.5 22.58 137.388 22.772C137.276 22.964 137.172 23.1827 137.076 23.428V28.5H135.356V20.34H136.356C136.538 20.34 136.663 20.3747 136.732 20.444C136.802 20.508 136.85 20.6227 136.876 20.788L136.98 21.852ZM143.351 21.42C143.527 21.2387 143.708 21.076 143.895 20.932C144.087 20.7827 144.289 20.6547 144.503 20.548C144.716 20.4413 144.943 20.3587 145.183 20.3C145.423 20.2413 145.684 20.212 145.967 20.212C146.415 20.212 146.807 20.2867 147.143 20.436C147.484 20.5853 147.769 20.796 147.999 21.068C148.233 21.34 148.409 21.668 148.527 22.052C148.644 22.4307 148.703 22.8493 148.703 23.308V28.5H146.991V23.308C146.991 22.7587 146.863 22.332 146.607 22.028C146.356 21.724 145.972 21.572 145.455 21.572C145.071 21.572 144.713 21.66 144.383 21.836C144.057 22.012 143.751 22.252 143.463 22.556V28.5H141.743V20.34H142.783C143.017 20.34 143.167 20.4493 143.231 20.668L143.351 21.42Z" fill="white"/>
<defs>
<clipPath id="clip0_6039_1363">
<rect width="25" height="25" fill="white" transform="translate(20 10)"/>
</clipPath>
</defs>
</svg>
